<svg width="691" height="456" viewBox="0 0 691 456" fill="none" xmlns="http://www.w3.org/2000/svg">
<g clip-path="url(#clip0_4_14)">
<path d="M529.046 450.843C520.199 442.592 514.826 429.558 516.235 416.868C517.644 404.179 526.372 392.514 537.694 389.819C549.016 387.125 561.922 394.584 565.361 406.792C567.254 383.256 569.434 358.734 580.771 338.691C591.036 320.542 608.815 307.556 628.084 305.233C647.352 302.91 667.639 311.684 679.657 328.471C691.674 345.258 694.616 369.663 686.2 388.936C679.999 403.133 668.577 413.699 656.608 422.295C617.935 449.838 571.551 461.039 525.991 453.836L529.046 450.843Z" fill="#F2F2F2"/>
<path d="M660.602 312.171C644.703 326.465 630.118 342.451 617.056 359.9C596.616 387.112 580.075 417.623 568.01 450.369C567.127 452.757 570.641 453.797 571.514 451.435C591.254 398.217 622.768 351.311 663.172 315.007C664.987 313.376 662.402 310.553 660.602 312.171Z" fill="white"/>
<path d="M222.444 448.601C234.595 437.268 241.976 419.366 240.04 401.937C238.105 384.508 226.116 368.486 210.566 364.785C195.015 361.084 177.288 371.329 172.565 388.096C169.966 355.77 166.97 322.089 151.4 294.56C137.301 269.633 112.881 251.796 86.4157 248.606C59.9503 245.415 32.0856 257.466 15.5801 280.523C-0.925381 303.58 -4.96668 337.1 6.59334 363.571C15.1092 383.072 30.7984 397.584 47.2368 409.391C99.681 447.058 164.738 462.767 226.641 452.712" fill="#F2F2F2"/>
<path d="M41.7513 258.134C63.5885 277.767 83.6218 299.725 101.562 323.69C119.504 347.631 135.301 373.436 148.729 400.743C156.235 416.061 162.978 431.82 168.927 447.949C170.14 451.23 165.313 452.659 164.114 449.414C153.576 420.978 140.538 393.75 125.188 368.121C109.913 342.585 92.4292 318.745 72.9831 296.936C61.9843 284.606 50.3796 272.953 38.2216 262.03C35.7296 259.79 39.2798 255.913 41.7513 258.134L41.7513 258.134Z" fill="white"/>
<path d="M496.011 455.002H206.109V126.682C206.109 56.829 257.594 0 320.878 0H381.242C444.526 0 496.011 56.829 496.011 126.682V455.002Z" fill="#F2F2F2"/>
<path d="M435.648 455.002H206.109V126.682C206.045 99.9157 213.724 73.8263 228.027 52.2118C228.554 51.4186 229.08 50.6357 229.622 49.8613C236.54 39.846 244.773 31.0258 254.049 23.6916C254.573 23.2708 255.099 22.8573 255.632 22.4438C263.394 16.5151 271.79 11.6685 280.629 8.01434C281.154 7.79474 281.689 7.5747 282.223 7.36366C290.217 4.21466 298.504 2.05761 306.931 0.932333C307.453 0.853562 307.99 0.791923 308.526 0.730283C316.738 -0.238871 325.02 -0.238871 333.232 0.730283C333.767 0.791923 334.303 0.853555 334.831 0.933176C343.256 2.05852 351.541 4.21531 359.533 7.3637C360.068 7.57474 360.602 7.79476 361.129 8.0148C369.859 11.6229 378.156 16.3971 385.835 22.231C386.368 22.6356 386.902 23.0491 387.428 23.4626C392.628 27.5591 397.511 32.1229 402.03 37.1074C405.653 41.1055 409.029 45.3672 412.136 49.8639C412.677 50.6357 413.202 51.4187 413.729 52.2106C428.032 73.8252 435.711 99.9152 435.648 126.682V455.002Z" fill="#FFC5A4"/>
<path d="M416.983 308.156C424.001 308.156 429.691 301.876 429.691 294.129C429.691 286.382 424.001 280.102 416.983 280.102C409.964 280.102 404.275 286.382 404.275 294.129C404.275 301.876 409.964 308.156 416.983 308.156Z" fill="#F5963D"/>
<path d="M472.262 445.168H462.524L457.892 403.711L472.264 403.712L472.262 445.168Z" fill="#FFB8B8"/>
<path d="M455.569 442.097H474.348V455.148H443.745C443.745 453.434 444.051 451.737 444.645 450.154C445.239 448.57 446.11 447.131 447.208 445.919C448.306 444.708 449.61 443.746 451.044 443.09C452.479 442.434 454.016 442.097 455.569 442.097Z" fill="#2F2E41"/>
<path d="M520.711 445.168H510.974L506.341 403.711L520.713 403.712L520.711 445.168Z" fill="#FFB8B8"/>
<path d="M504.018 442.097H522.798V455.148H492.194C492.194 453.434 492.5 451.737 493.094 450.154C493.689 448.57 494.56 447.131 495.658 445.919C496.756 444.708 498.059 443.746 499.494 443.09C500.928 442.434 502.466 442.097 504.018 442.097Z" fill="#2F2E41"/>
<path d="M423.414 296.908C422.714 295.769 422.248 294.474 422.05 293.115C421.852 291.755 421.926 290.364 422.268 289.04C422.609 287.716 423.21 286.49 424.027 285.45C424.844 284.41 425.858 283.58 426.997 283.019L460.098 182.316L476.386 192.128L438.591 288.362C439.319 290.537 439.298 292.931 438.533 295.09C437.768 297.249 436.312 299.023 434.442 300.076C432.571 301.129 430.415 301.389 428.383 300.805C426.35 300.221 424.582 298.834 423.414 296.908Z" fill="#FFB8B8"/>
<path d="M515.737 315.831C514.655 315.146 513.722 314.207 513.004 313.081C512.286 311.956 511.801 310.67 511.582 309.314C511.362 307.959 511.415 306.567 511.736 305.236C512.057 303.906 512.639 302.669 513.44 301.614L503.185 195.088L521.721 196.022L525.983 300.805C527.5 302.407 528.433 304.569 528.603 306.879C528.773 309.189 528.17 311.489 526.907 313.341C525.644 315.193 523.809 316.469 521.751 316.928C519.692 317.387 517.552 316.997 515.737 315.831Z" fill="#FFB8B8"/>
<path d="M486.167 163.664C496.941 163.664 505.674 154.023 505.674 142.131C505.674 130.239 496.941 120.599 486.167 120.599C475.393 120.599 466.659 130.239 466.659 142.131C466.659 154.023 475.393 163.664 486.167 163.664Z" fill="#FFB8B8"/>
<path d="M515.613 291.603H456.801L456.872 291.098C456.977 290.343 467.353 215.318 459.701 190.773C458.933 188.361 459 185.721 459.89 183.361C460.78 181 462.43 179.087 464.521 177.988H464.521C475.46 172.302 496.456 165.301 514.178 182.292C516.786 184.833 518.822 188.01 520.126 191.569C521.43 195.129 521.966 198.975 521.691 202.803L515.613 291.603Z" fill="#65706E"/>
<path d="M468.096 226.405L441.619 220.476L454.03 188.013C454.773 184.868 456.615 182.178 459.152 180.531C461.69 178.884 464.716 178.415 467.566 179.227C470.417 180.039 472.859 182.066 474.357 184.863C475.856 187.66 476.288 190.999 475.559 194.147L468.096 226.405Z" fill="#65706E"/>
<path d="M502.008 237.415L500.416 197.138C499.209 189.567 503.136 182.41 509.175 181.24C515.215 180.074 521.114 185.325 522.326 192.952L528.309 230.586L502.008 237.415Z" fill="#65706E"/>
<path d="M513.656 286.781C523.119 326.563 524.152 377.141 521.599 432.312L508.891 430.559L485.857 325.356L473.149 432.312L458.853 431.435C454.582 373.548 450.423 323.852 457.264 291.165L513.656 286.781Z" fill="#2F2E41"/>
<path d="M499.02 158.772C495.381 163.051 488.623 160.754 488.148 154.908C488.111 154.454 488.114 153.998 488.156 153.544C488.401 150.955 489.757 148.604 489.432 145.87C489.358 145.19 489.129 144.541 488.765 143.986C485.865 139.7 479.057 145.903 476.32 142.023C474.642 139.644 476.615 135.898 475.327 133.238C473.627 129.728 468.592 131.46 465.435 129.538C461.922 127.399 462.133 121.45 464.445 117.831C467.265 113.419 472.209 111.064 477.092 110.724C481.975 110.385 486.824 111.842 491.383 113.803C496.562 116.031 501.698 119.11 504.885 124.137C508.762 130.25 509.135 138.469 507.196 145.617C506.017 149.966 501.992 155.278 499.02 158.772Z" fill="#2F2E41"/>
<path d="M667.158 455.566H80.7657C80.5153 455.565 80.2755 455.455 80.0987 455.259C79.922 455.063 79.8227 454.798 79.8227 454.522C79.8227 454.246 79.922 453.981 80.0987 453.785C80.2755 453.589 80.5153 453.479 80.7657 453.478H667.158C667.408 453.479 667.648 453.589 667.825 453.785C668.002 453.981 668.101 454.246 668.101 454.522C668.101 454.798 668.002 455.063 667.825 455.259C667.648 455.455 667.408 455.565 667.158 455.566Z" fill="#3F3D56"/>
<path d="M372.505 359.881H269.252C267.892 359.889 266.585 359.301 265.617 358.247C264.649 357.193 264.1 355.758 264.089 354.257V99.8683C264.1 98.3674 264.649 96.9323 265.617 95.878C266.585 94.8236 267.892 94.236 269.252 94.2441H372.505C373.864 94.236 375.172 94.8236 376.139 95.878C377.107 96.9323 377.657 98.3674 377.667 99.8683V354.257C377.657 355.758 377.107 357.193 376.139 358.247C375.172 359.301 373.864 359.889 372.505 359.881Z" fill="white"/>
<path d="M377.667 176.556H264.089V178.31H377.667V176.556Z" fill="#CCCCCC"/>
<path d="M378.064 276.596H264.486V278.349H378.064V276.596Z" fill="#CCCCCC"/>
<path d="M301.419 94.2441H299.83V360.758H301.419V94.2441Z" fill="#CCCCCC"/>
<path d="M341.132 94.2441H339.543V360.758H341.132V94.2441Z" fill="#CCCCCC"/>
</g>
<defs>
<clipPath id="clip0_4_14">
<rect width="691" height="456" fill="white"/>
</clipPath>
</defs>
</svg>
