<?xml version="1.0" encoding="iso-8859-1"?>
<!-- Generator: Adobe Illustrator 18.1.1, SVG Export Plug-In . SVG Version: 6.00 Build 0)  -->
<svg version="1.1" id="Capa_1" xmlns="http://www.w3.org/2000/svg" xmlns:xlink="http://www.w3.org/1999/xlink" x="0px" y="0px"
	 viewBox="0 0 43.403 43.403" style="enable-background:new 0 0 43.403 43.403;" xml:space="preserve">
<g>
	<g id="b132_dinner_service">
		<path style="fill:#030104;" d="M21.615,35.153c-7.418,0-13.451-6.033-13.451-13.449c0-7.418,6.033-13.453,13.451-13.453
			s13.451,6.035,13.451,13.453C35.066,29.12,29.033,35.153,21.615,35.153z M21.615,9.419c-6.775,0-12.279,5.512-12.279,12.285
			c0,6.77,5.504,12.279,12.279,12.279c6.773,0,12.281-5.51,12.281-12.279C33.896,14.931,28.389,9.419,21.615,9.419z"/>
		<path style="fill:#030104;" d="M33.035,21.704c0,6.305-5.115,11.416-11.42,11.416c-6.307,0-11.422-5.111-11.422-11.416
			c0-6.309,5.115-11.422,11.422-11.422C27.92,10.282,33.035,15.396,33.035,21.704z"/>
		<path style="fill:#030104;" d="M5.955,9.694l-0.34,6.412H4.144L4.018,9.562h-1.02l-0.159,6.544H1.584L1.062,9.692L0,9.694v6.637
			h0.009c0.067,2.115,1.113,2.322,2.528,2.924H2.511v4.434v0.004v9.609c1.216,1.217,2.153,0.004,2.153,0.004l0.003-9.791H4.664
			v-4.254c0,0,2.32-0.814,2.388-2.93h0.009L7.059,9.694H5.955z"/>
		<path style="fill:#030104;" d="M40.471,9.251h-1.502h-1.503v24.906h3.005V20.991h2.604C44.57,14.446,40.471,9.251,40.471,9.251z"
			/>
	</g>
</g>
<g>
</g>
<g>
</g>
<g>
</g>
<g>
</g>
<g>
</g>
<g>
</g>
<g>
</g>
<g>
</g>
<g>
</g>
<g>
</g>
<g>
</g>
<g>
</g>
<g>
</g>
<g>
</g>
<g>
</g>
</svg>
